<?xml version="1.0" encoding="UTF-8" standalone="no"?>
<!-- Generator: Adobe Illustrator 26.0.1, SVG Export Plug-In . SVG Version: 6.00 Build 0)  -->

<svg
   version="1.1"
   id="Layer_1"
   x="0px"
   y="0px"
   viewBox="0 0 612 792"
   style="enable-background:new 0 0 612 792;"
   xml:space="preserve"
   sodipodi:docname="stent 2 maille.svg"
   inkscape:version="1.3 (0e150ed6c4, 2023-07-21)"
   xmlns:inkscape="http://www.inkscape.org/namespaces/inkscape"
   xmlns:sodipodi="http://sodipodi.sourceforge.net/DTD/sodipodi-0.dtd"
   xmlns="http://www.w3.org/2000/svg"
   xmlns:svg="http://www.w3.org/2000/svg"><defs
   id="defs3" /><sodipodi:namedview
   id="namedview3"
   pagecolor="#ffffff"
   bordercolor="#000000"
   borderopacity="0.25"
   inkscape:showpageshadow="2"
   inkscape:pageopacity="0.0"
   inkscape:pagecheckerboard="0"
   inkscape:deskcolor="#d1d1d1"
   showgrid="false"
   inkscape:zoom="4.020202"
   inkscape:cx="332.8191"
   inkscape:cy="470.12563"
   inkscape:window-width="1920"
   inkscape:window-height="992"
   inkscape:window-x="-8"
   inkscape:window-y="-8"
   inkscape:window-maximized="1"
   inkscape:current-layer="Layer_1" />&#10;<style
   type="text/css"
   id="style1">&#10;	.st0{fill:none;stroke:#000000;stroke-miterlimit:10;}&#10;</style>&#10;<path
   class="st0"
   d="M300.5,274.4c-1,1.58-1.31,2.18-1.4,2.38c-0.84,1.92-0.83,3.4-0.94,3.92c-0.78,3.87-18.4,4.43-26.1,4.86  c-22.83,1.27-26.2,5.14-27.36,6.84c-2.22,3.26-2.58,7.71-2.87,11.35c-0.29,3.64-0.59,7.4,1.43,10.61c1.93,3.07,4.78,3.72,8.46,5.4  c8.46,3.86,14.28,9.94,22.68,18.72c1.94,2.02,4.53,4.9,8.82,7.74c2.69,1.78,4.04,2.67,6.12,3.6c3.45,1.54,4.99,1.47,6.48,3.24  c1.74,2.08,1.7,4.66,1.68,5.22c-0.01,0.36-0.14,2.88-1.86,4.86c-1.87,2.15-4.67,2.59-11.34,2.88c-6.03,0.26-7.71,0.06-11.16,0.18  c-8.65,0.29-14.71,2.06-19.37,3.46c-7.04,2.12-9.11,3.76-10.51,5.54c-0.54,0.69-2.46,3.23-2.65,6.99c-0.17,3.54,1.26,6.79,3.19,8.85  c2.46,2.63,5.64,3.2,14.4,3.78c12.76,0.84,19.13,1.26,23.76,1.08c5.85-0.23,13.12-0.86,14.94,2.34c0.19,0.34,0.76,1.49,0.93,3.05  c0.05,0.46,0.29,3.08-0.93,4.87c-1.21,1.76-3.48,2.21-7.92,2.52c-5.93,0.41-10.46,0.21-11.34,0.18c-0.83-0.03-8.91-0.3-17.64,1.8  c-6.18,1.49-11,2.65-14.97,6.97c-1.13,1.23-4.38,4.87-4.83,10.49c-0.09,1.13-0.37,5.41,2.16,9.54c1.33,2.17,3.36,3.63,7.38,6.48  c4.47,3.16,5.08,2.94,9,5.76c3.13,2.25,3.16,2.7,8.15,6.76c4.29,3.49,7.75,6.01,8.77,6.74c4.71,3.4,7.47,5.39,11.52,7.92  c3.2,2,5.15,3.04,7.02,5.58c0.91,1.24,2.4,3.32,2.44,6.29c0.01,0.73,0.04,3.24-1.54,5.23c-0.47,0.59-1.95,2.23-10.26,3.06  c-4.8,0.48-5.42,0.05-10.07,0.59c-3.07,0.36-5.37,0.85-7.93,1.39c-5.49,1.16-5.43,1.56-10.12,2.47c-2.24,0.44-4.16,0.72-7.32,1.52  c-1.51,0.38-3.92,1.03-6,3.05c-0.04,0.04-0.29,0.27-0.56,0.58c-0.95,1.08-3.3,4.11-3.36,8.52c-0.01,0.54,0,5.76,3.72,9.24  c2.14,2,4.67,2.65,13.8,3c7.02,0.27,11.34,0.11,19.2,0c4.48-0.06,8.43-0.16,16.32-0.36c8.97-0.22,10.74-0.31,13.08-1.68  c2.65-1.56,2.42-2.78,8.4-9.6c3.34-3.81,5-5.71,6.84-6.84c3.86-2.37,6.83-1.81,13.8-2.16c6.68-0.34,3.05-0.88,23.04-3.72  c6.4-0.91,9.99-1.27,12.84-4.32c2.64-2.82,3.29-6.49,3.48-7.56c0.81-4.57-0.59-8.14-1.08-9.36c-0.52-1.27-1.45-3.14-3.85-5.85  c-3.48-3.94-6.58-5.72-10.79-8.55c-1-0.67-5.03-3.69-13.08-9.72c-10.51-7.87-9.75-7.62-11.94-8.88c-1.11-0.64-5.61-3.17-11.1-6.84  c-1.82-1.22-4.24-2.89-4.92-5.76c-0.11-0.45-0.47-2.1,0.24-3.84c0.9-2.19,3-3.26,4.32-3.84c6.58-2.91,16.02-3.7,18.84-3.96  c6.47-0.59,3.15-0.65,16.47-2.3c10.97-1.36,14.07-1.42,16.56-4.26c2.87-3.27,2.77-7.77,2.73-10c-0.04-1.68-0.17-7.96-4.5-11.37  c-2.49-1.96-5.28-2.12-9.42-2.19c-10.25-0.16-18.62,0.4-22.08,0.6c-16.3,0.96-19.01-0.39-20.28-2.28c-1.33-1.98-1.34-4.97-0.12-6.96  c2.04-3.32,6.8-2.71,17.17-3.54c7.13-0.58,12.55-1.83,23.39-4.26c6.19-1.38,8.84-2.21,10.78-4.72c2.64-3.4,2.89-8.52,3.02-11.12  c0.08-1.53,0.18-3.62-0.24-5.52c-1.72-7.73-11.16-7.78-23.28-18.48c-0.95-0.84-3.98-3.82-10.02-9.78c-6.62-6.52-7.09-7.12-9-8.28  c-4.27-2.59-6.73-2.53-9.9-5.94c-1.24-1.33-2.97-3.25-3-6c-0.04-2.96,1.92-5.02,2.28-5.4c2.42-2.55,5.94-2.63,9.36-2.76  c5.49-0.21,10.95-0.86,16.44-0.96c14.1-0.25,19.04-0.93,22.92-3.6c0.94-0.65,3.08-2.15,4.68-4.92c1.41-2.44,1.73-4.69,1.92-6.12  c0.2-1.5,0.55-4.39-0.6-7.8c0,0-1.03-3.07-3.12-5.4c-2.42-2.7-6.08-3.43-22.68-3.12c-10.39,0.19-11.37,0.54-18.3,0.36  c-4.23-0.11-5.4-0.27-8.58-0.12c-10.74,0.52-14.8,3.27-15.9,4.08c-1.88,1.38-3.6,3.24-3.6,3.24  C302.98,270.9,301.91,272.17,300.5,274.4z"
   id="path1" />&#10;<path
   class="st0"
   d="m 251.28615,379.76939 c -8.49253,5.86464 -16.98505,11.71668 -25.47757,17.58132"
   id="path2"
   style="stroke-width:1.47099" /><path
   class="st0"
   d="m 307.98194,266.24555 c -2.13558,2.3012 -4.27115,4.59743 -6.40672,6.89863"
   id="path2-2"
   style="fill:none;stroke:#000000;stroke-width:0.462066;stroke-miterlimit:10" /><path
   class="st0"
   d="m 312.57607,512.26269 c -2.13558,2.3012 -4.27115,4.59743 -6.40672,6.89863"
   id="path2-2-7"
   style="fill:none;stroke:#000000;stroke-width:0.462066;stroke-miterlimit:10" />&#10;<path
   class="st0"
   d="m 390.76562,385.40433 c -8.50199,5.54273 -17.00398,11.07354 -25.50597,16.61626"
   id="path3"
   style="stroke-width:1.43085" />&#10;</svg>
